<svg width="133" height="34" viewBox="0 0 133 34" fill="none" xmlns="http://www.w3.org/2000/svg">
<path d="M11.326 0.642207C10.2983 0.965436 8.26068 3.0313 7.03811 4.99879C6.77233 5.43445 6.11675 6.2636 5.5852 6.85385C5.01821 7.4722 4.27403 8.58243 3.77791 9.50996C3.31723 10.3813 2.64393 11.5758 2.27185 12.152C1.3682 13.5855 0.5 15.7778 0.5 16.6632C0.5 17.2534 0.588592 17.4361 0.996117 17.7734C1.42136 18.0966 1.70485 18.181 2.78568 18.2653C4.00825 18.3637 4.06141 18.3777 3.93738 18.6728C3.86651 18.8274 3.77791 19.6144 3.74248 20.4014C3.6716 21.7787 3.68932 21.877 4.22088 22.7483C4.53981 23.2964 5.05364 23.8586 5.47889 24.1396C6.1699 24.6175 7.74685 25.0812 8.68593 25.0812C9.21748 25.0812 9.28835 25.1937 9.44782 26.4163C9.58957 27.4563 9.69588 27.7514 9.9085 27.7514C9.99709 27.7514 10.068 27.119 10.068 26.346C10.068 25.0531 10.2097 24.6877 10.5286 25.0953C10.5995 25.1937 10.759 26.5006 10.883 28.0184C11.007 29.5362 11.1665 31.0259 11.2374 31.321C11.326 31.7988 11.3791 31.841 11.5386 31.6161C11.6449 31.4475 11.6803 30.1826 11.6272 28.0044L11.5209 24.6596L12.6194 24.1396C14.3027 23.3386 15.791 22.3548 16.6415 21.4835L17.4211 20.6684L17.4743 21.5819C17.5274 22.8467 17.616 23.0435 18.3425 23.6899C19.0512 24.3223 19.5651 24.5191 21.7621 25.0672L23.2682 25.4466L23.3214 26.7395C23.3922 28.6227 23.6935 28.4541 23.9947 26.3741C24.0833 25.6715 24.1719 25.5028 24.4022 25.5309C24.6503 25.5731 24.7034 26.0369 24.7743 29.5783C24.8629 33.8647 25.0046 33.949 25.3058 29.9297C25.3944 28.693 25.5185 27.2174 25.5893 26.6552L25.6956 25.6434H27.9459C30.834 25.6434 31.7199 25.4466 33.0311 24.505C33.5626 24.1256 34.0765 23.8164 34.1828 23.8164C34.2891 23.8164 34.3245 24.0413 34.2537 24.4348C34.1473 24.9407 34.1828 25.0953 34.4486 25.278C35.6357 26.0509 36.2027 26.346 36.5393 26.346C37.5316 26.346 39.4806 24.772 39.4806 23.971C39.4806 23.7461 39.2148 23.1278 38.8782 22.5938C38.134 21.3992 37.7265 20.4155 35.1396 13.3466C32.2337 5.42039 32.2692 5.47661 31.8794 5.20959C31.3301 4.81609 30.5682 5.04095 29.4697 5.89821C28.5129 6.62899 28.4952 6.6571 28.4952 7.44409C28.4952 8.00623 28.7609 8.97592 29.3634 10.5921C31.2238 15.5389 31.5782 17.0567 31.5959 19.9798C31.5959 21.596 31.525 22.2986 31.3833 22.4251C31.2061 22.5657 30.5682 22.5657 28.3357 22.4392C25.1464 22.2424 23.0556 21.8489 22.0456 21.2306C21.4078 20.8511 21.4078 20.8371 21.4078 19.7831C21.4078 18.8977 21.585 18.2372 22.5063 15.7497L23.6049 12.7844L23.6226 10.5359C23.6226 8.47 23.5871 8.24514 23.2151 7.69706C22.5949 6.76953 21.5672 6.46035 20.5396 6.8679C19.76 7.19113 18.6083 8.2873 18.4842 8.82134C18.2716 9.70671 18.4311 10.1002 19.0512 10.2407C20.2206 10.5218 20.3092 12.0536 19.3524 15.1314C18.7323 17.0707 18.3956 17.7031 18.3956 16.8599C18.3956 16.0589 17.368 15.1032 16.11 14.7519C15.0114 14.4568 12.2651 14.4849 9.27063 14.8362C6.18762 15.2016 4.66384 15.1314 4.50437 14.6114C4.39806 14.26 4.98277 12.7985 5.81554 11.3791C6.09903 10.9153 6.71918 9.84724 7.21529 9.00403C7.72913 8.14677 8.26068 7.33167 8.43787 7.19113C8.72136 6.93817 8.73908 6.98033 8.82767 8.37162C8.89855 9.55212 8.96942 9.83319 9.18204 9.83319C9.39466 9.83319 9.44782 9.52401 9.48326 8.00623C9.51869 6.99438 9.57185 6.03874 9.625 5.85605C9.80219 5.29391 10.0148 5.53282 10.1211 6.40414C10.3337 8.23109 10.8653 7.38788 10.759 5.42039C10.7235 4.87231 10.7413 4.39449 10.8121 4.35233C10.883 4.29611 11.2551 5.04095 11.6449 5.99658C12.0347 6.93817 12.5131 8.10461 12.7257 8.56837C12.9384 9.03214 13.2218 10.1424 13.3459 11.0418C13.4876 12.0396 13.7002 12.9109 13.9483 13.3325C14.3204 14.0071 14.3204 14.0211 15.0291 13.9368C15.8442 13.8525 16.4466 13.5152 17.1731 12.7282C17.616 12.2363 17.6869 12.0255 17.6869 11.2666C17.6869 10.7888 17.5806 10.0721 17.4388 9.69265C16.4112 6.71331 16.0922 5.77173 15.8265 4.8442C15.3658 3.27021 14.409 1.34488 13.8597 0.895169C13.4522 0.557887 13.2218 0.487617 12.5663 0.50167C12.1233 0.50167 11.5563 0.57194 11.326 0.642207ZM13.4345 17.8577C14.285 18.1388 14.6748 18.6307 14.6748 19.4879C14.6748 20.2468 14.1964 20.8792 13.2396 21.3852C12.6017 21.7084 12.2651 21.7787 11.1488 21.8208C9.55413 21.877 9.04029 21.6803 8.20753 20.7246C7.72913 20.1906 7.67597 19.9939 7.67597 19.0944C7.67597 18.5323 7.72913 18.0264 7.81772 17.9702C8.26068 17.6048 12.3891 17.5345 13.4345 17.8577Z" fill="black"/>
<path d="M73.3406 0.642227C72.2952 0.979511 70.2576 3.08753 68.8932 5.26583C68.6629 5.61716 68.0782 6.34794 67.5644 6.91008C67.0505 7.47222 66.3064 8.55434 65.8811 9.36944C65.4736 10.1705 64.7826 11.3791 64.375 12.0818C63.9498 12.7704 63.4891 13.6558 63.3297 14.0493C62.869 15.1595 62.8335 15.1876 62.0362 14.9346C60.5301 14.4568 58.5102 14.3584 55.2146 14.6114C53.5314 14.7379 51.8304 14.8222 51.4406 14.7941C50.7673 14.7519 50.8736 14.7098 53.3896 13.8385C55.6221 13.0796 56.1891 12.8266 56.8979 12.2504C57.6243 11.6461 57.7306 11.5056 57.7306 10.9575V10.3532L56.4549 10.1845C54.8071 9.95969 50.6787 9.13054 49.403 8.76514C46.9224 8.03436 43.8925 6.61496 43.0597 5.7577C42.8648 5.56095 42.475 4.95665 42.2093 4.42262L41.7309 3.43887H40.8981C40.2071 3.43887 39.959 3.52319 39.3389 3.9448C38.3644 4.60531 38.0631 5.08313 38.0631 5.99661C38.0631 6.53064 38.2049 6.99441 38.6124 7.65492C38.9136 8.16084 39.3566 9.25702 39.5869 10.1143C40.6323 13.8385 41.0576 15.5389 40.969 15.7216C40.9158 15.82 40.6323 16.0449 40.3488 16.2135C39.7464 16.5789 38.7719 17.7032 38.7719 18.0545C38.7719 18.4339 39.3389 18.715 40.2248 18.7853C41.6245 18.9118 41.6423 18.9539 41.536 21.1322C41.4828 22.1862 41.3942 23.3386 41.3411 23.704C41.2347 24.2802 41.2702 24.3786 41.6068 24.5191C41.9258 24.6596 42.1384 24.6456 42.7054 24.4348L43.3964 24.1818L44.4949 24.6315C45.8061 25.1656 47.5957 25.5169 48.4462 25.4045C49.2258 25.3061 49.5093 25.5029 49.6687 26.2898C49.8105 27.1049 50.1471 27.0347 50.3775 26.1353C50.4838 25.7558 50.661 25.4326 50.7673 25.4045C50.9267 25.3623 50.9622 26.3461 50.8736 29.4659C50.8204 31.7285 50.8204 33.5414 50.8913 33.4993C51.0508 33.3869 51.4406 30.5762 51.7063 27.6109C51.8304 26.4163 51.9898 25.3342 52.0607 25.2077C52.1493 25.0812 52.7695 24.8423 53.4428 24.6737C54.1161 24.5051 55.6044 23.9851 56.7738 23.5213C58.652 22.7624 59.0772 22.5095 60.7073 21.2446C61.9653 20.2609 62.7095 19.5442 63.0639 18.982L63.5954 18.1669L64.7826 18.2653C65.4382 18.3215 66.0051 18.3918 66.0406 18.4199C66.076 18.448 66.0229 18.6307 65.9165 18.8274C65.5622 19.4317 65.6508 21.5819 66.0583 22.4532C66.767 23.9429 68.2554 24.8423 70.3107 25.0391C71.2675 25.1234 71.2675 25.1375 71.4624 26.2758C71.7636 28.2433 72.0826 28.2714 72.0826 26.3461C72.0826 25.4747 72.1534 24.9407 72.2598 24.9407C72.6141 24.9407 72.7382 25.5731 72.9508 28.2433C73.1811 31.1524 73.2697 31.6864 73.5532 31.6864C73.6595 31.6864 73.695 30.5199 73.6418 28.173L73.5532 24.6596L74.634 24.1397C77.0437 23.0013 78.6207 21.7646 79.7015 20.1906C79.9318 19.8674 80.1799 19.6004 80.2331 19.6004C80.3039 19.6004 80.4988 19.8955 80.676 20.2609C81.1367 21.2446 81.5974 21.8208 82.7136 22.7484C83.7767 23.6478 84.5918 24.1116 85.7612 24.4769C86.718 24.7721 86.7712 24.8564 86.8066 25.7137C86.8243 26.6271 87.0015 27.119 87.3204 27.119C87.4622 27.119 87.6394 26.8941 87.728 26.5569C88.1001 25.2218 88.2241 24.9407 88.4721 24.9407C88.6316 24.9407 88.7379 25.0812 88.7379 25.3061C88.7379 26.3882 89.1277 31.9253 89.2163 32.108C89.4289 32.5577 89.6238 31.4053 89.7124 29.0162C89.7656 27.6671 89.8542 26.1072 89.9073 25.545L90.0136 24.5472L91.0059 24.1397C91.5551 23.9289 92.6183 23.2824 93.3801 22.7203C94.9571 21.5257 96.1442 19.9096 96.6049 18.2934C97.0479 16.7616 96.977 14.3163 96.4454 12.6299C95.967 11.1261 94.3901 8.3857 93.1675 6.92414C92.317 5.92634 89.7833 3.80426 89.0568 3.49509C88.4367 3.24212 86.9129 3.24212 86.2928 3.49509C86.027 3.60751 85.3891 4.04317 84.8753 4.46478C84.0248 5.19556 83.9539 5.29393 83.9539 5.94039C83.9539 6.51659 83.8299 6.7555 83.2452 7.43006C82.3416 8.45597 81.0127 10.5359 80.4988 11.7445C80.2685 12.2504 80.0027 13.2623 79.8787 13.993C79.7547 14.7238 79.6306 15.3422 79.5952 15.3703C79.5598 15.3984 79.3826 15.3281 79.2054 15.2016C78.1954 14.4709 75.4314 14.3444 71.2852 14.8363C68.1668 15.2016 66.6784 15.1314 66.5367 14.5973C66.4481 14.232 67.21 12.4331 68.0073 11.098C68.2731 10.6343 68.8755 9.62241 69.3362 8.84947C69.7792 8.09058 70.2753 7.33169 70.4525 7.19115C70.736 6.93819 70.7537 6.99441 70.8423 8.37165C70.9132 9.55214 70.984 9.83321 71.1966 9.83321C71.4093 9.83321 71.4624 9.52403 71.4979 8.00626C71.5333 6.99441 71.5865 6.03877 71.6396 5.85607C71.8168 5.29393 72.0294 5.53284 72.1534 6.41821C72.3838 8.1749 72.8445 7.45817 72.7736 5.46257C72.7559 4.88638 72.7736 4.38046 72.8267 4.35235C72.9331 4.26803 73.5355 5.49068 74.0139 6.81171C74.2088 7.31763 74.5277 8.10463 74.7403 8.55434C74.953 9.01811 75.2365 10.1283 75.3605 11.0559C75.5022 12.0256 75.7503 12.9812 75.9806 13.3606C76.335 14.0071 76.3527 14.0212 77.0437 13.9368C77.8588 13.8525 78.4612 13.5152 79.1877 12.7282C79.8964 11.9272 79.8964 10.8029 79.1522 8.7792C78.8687 7.9641 78.3549 6.41821 78.0183 5.33609C77.3095 3.07348 76.5122 1.42922 75.8566 0.867085C75.4668 0.557907 75.2365 0.48764 74.5809 0.501694C74.1379 0.501694 73.5709 0.57196 73.3406 0.642227ZM87.0192 9.22891C87.0901 10.1002 87.1433 11.2526 87.161 11.8007C87.1787 12.3347 87.2318 12.939 87.3027 13.1358L87.4445 13.4871L87.5508 13.0655C87.6039 12.8266 87.7102 11.885 87.7811 10.9575C87.852 9.88942 87.9937 9.11648 88.1532 8.84947L88.4367 8.44191L89.0391 8.99C89.9073 9.79105 91.6437 12.4331 92.2816 13.9368C93.5219 16.874 93.3447 19.8252 91.8741 21.1041C91.5551 21.3852 91.3425 21.4273 90.0136 21.4273C88.8088 21.4273 88.3481 21.3711 87.7102 21.1182C86.0979 20.4717 84.5209 18.5885 83.8476 16.5227C83.635 15.8481 83.5818 15.1595 83.635 13.712C83.7059 11.9834 83.759 11.6742 84.2729 10.5359C85.1056 8.73704 85.9916 7.65492 86.6117 7.65492C86.8598 7.65492 86.9306 7.89383 87.0192 9.22891ZM47.4362 11.9272C48.4639 12.1801 49.3321 12.4612 49.3675 12.5596C49.4384 12.7282 45.9301 14.1195 45.4163 14.1195C45.2746 14.1195 45.0796 13.979 44.9911 13.7963C44.743 13.2763 44.4241 11.5899 44.5481 11.4353C44.6721 11.2667 45.0619 11.3229 47.4362 11.9272ZM50.1117 15.1033C50.1117 15.1735 50.0231 15.2438 49.9168 15.2438C49.8282 15.2438 49.7928 15.1735 49.8459 15.1033C49.8991 15.0189 49.9877 14.9627 50.0408 14.9627C50.0763 14.9627 50.1117 15.0189 50.1117 15.1033ZM75.4491 17.8578C76.2996 18.1388 76.6894 18.6307 76.6894 19.488C76.6894 20.2468 76.211 20.8793 75.2542 21.3852C74.6163 21.7084 74.2797 21.7787 73.1634 21.8208C71.5865 21.8771 71.0549 21.6803 70.2221 20.7387C69.7615 20.2047 69.7083 20.0079 69.6906 19.1085C69.6906 18.5464 69.7437 18.0264 69.8323 17.9702C70.2753 17.6048 74.4037 17.5345 75.4491 17.8578ZM59.2721 18.0826C59.5733 18.3075 59.6797 18.5323 59.6797 18.982C59.6797 19.5161 59.5911 19.6285 58.9355 20.0642C56.8624 21.3992 53.1061 22.3408 50.2889 22.2424C48.6765 22.1722 48.0563 21.9895 46.6034 21.1603L45.8415 20.7106L45.8947 19.6285L45.9479 18.5464L47.2767 18.3075C48.0032 18.181 49.0309 18.0404 49.5801 18.0264L50.5547 17.9842L50.6078 18.5042C50.6787 19.2069 50.9445 19.1788 51.352 18.448C51.7595 17.7313 51.8127 17.8437 51.9544 19.4599C52.0076 20.1204 52.1139 20.809 52.1847 21.0057L52.3088 21.3571L52.4505 20.9355C52.5214 20.6966 52.6454 19.8955 52.6986 19.1366L52.8226 17.7734H55.8347C58.7051 17.7734 58.8823 17.7875 59.2721 18.0826Z" fill="black"/>
<path d="M121.039 4.32423C119.763 5.33609 119.745 5.36419 119.745 6.09497C119.745 6.72738 119.657 6.92413 119.054 7.55654C118.682 7.96409 118.009 8.84946 117.566 9.55213C115.564 12.7423 115.032 16.0448 116.06 19.0382C116.644 20.7387 117.3 21.6803 118.718 22.8467C119.94 23.8445 120.312 24.0413 121.907 24.5613C122.527 24.7721 122.562 24.8142 122.669 25.6012C122.846 26.8801 122.952 27.1893 123.2 27.1893C123.484 27.1893 123.537 27.0909 123.82 25.8823C124.069 24.8985 124.423 24.6315 124.6 25.3201C124.635 25.545 124.724 26.8801 124.795 28.3135C124.919 31.4756 125.025 32.3328 125.291 32.122C125.397 32.0377 125.539 30.6324 125.628 28.5665C125.716 26.6833 125.823 25.011 125.858 24.8423C125.929 24.6175 126.283 24.3926 126.974 24.1115C129.526 23.0856 131.723 20.7809 132.485 18.3075C133.371 15.4265 132.786 12.6017 130.607 9.14458C129.455 7.31763 128.392 6.06687 127.027 4.92853C125.344 3.53724 124.83 3.29833 123.502 3.29833H122.332L121.039 4.32423ZM122.828 8.10462C122.881 8.35758 122.952 9.60835 123.023 10.8872C123.076 12.152 123.2 13.2623 123.289 13.3325C123.413 13.4309 123.466 13.3747 123.466 13.192C123.519 10.7748 123.962 8.49812 124.37 8.49812C124.618 8.49812 125.929 10.0581 126.815 11.4494C128.977 14.766 129.579 17.928 128.516 20.1766C127.984 21.2446 127.594 21.4273 125.787 21.4273C124.387 21.4273 124.175 21.3852 123.448 21.0338C121.854 20.2187 120.773 18.9961 119.94 17.0989C119.621 16.3681 119.568 15.9043 119.568 14.1476C119.568 12.2785 119.621 11.9272 120.029 10.8732C120.578 9.48187 120.826 9.06026 121.588 8.25921C122.261 7.52843 122.704 7.47222 122.828 8.10462Z" fill="black"/>
<path d="M101.247 4.92853C100.538 5.23771 99.2095 6.34794 99.1032 6.71333C99.0677 6.88197 98.9969 8.03435 98.9614 9.27106C98.8906 11.3229 98.7843 11.885 97.8629 15.5249C96.8707 19.4598 96.8529 19.5863 96.7112 22.7624C96.6403 24.5332 96.6049 26.0369 96.658 26.0931C96.7998 26.2898 98.7134 26.2055 100.68 25.9244C103.373 25.5309 103.391 25.5309 103.604 26.1634C103.71 26.4585 103.799 27.2033 103.816 27.8217C103.816 29.1708 104.029 30.2108 104.188 29.7892C104.259 29.6346 104.366 28.7492 104.436 27.8217C104.578 25.812 104.684 25.5028 105.305 25.5028C105.694 25.5028 105.748 25.5591 105.748 25.9947C105.748 26.6412 106.013 26.6271 106.421 25.9526L106.722 25.4326H108.228C110.319 25.4466 111.418 25.7418 112.835 26.6974C113.561 27.2033 114.128 27.4703 114.43 27.4703C115.581 27.4563 117.442 26.0509 117.442 25.1937C117.442 24.8423 117.176 24.5472 116.148 23.6899C115.457 23.0997 114.589 22.2705 114.217 21.8489C113.296 20.7528 112.782 20.3874 112.268 20.5139C112.055 20.5701 111.364 20.9917 110.762 21.4273L109.663 22.2424L108.104 22.3268C107.254 22.3689 105.464 22.5376 104.153 22.6921C102.842 22.8467 101.548 22.9732 101.283 22.9732H100.786L100.751 21.2446C100.662 18.2793 100.733 17.8015 101.743 13.7401C102.7 9.88941 102.735 9.70672 102.735 7.45816C102.735 5.22366 102.718 5.13933 102.346 4.92853C101.867 4.66152 101.885 4.66152 101.247 4.92853Z" fill="black"/>
</svg>
